<svg width="590" height="131" viewBox="0 0 590 131" fill="none" xmlns="http://www.w3.org/2000/svg">
<path d="M69.8438 68.6406C69.8438 73.9219 69.1719 78.7344 67.8281 83.0781C66.5156 87.3906 64.5312 91.1094 61.875 94.2344C59.2188 97.3281 55.8906 99.7188 51.8906 101.406C47.8906 103.094 43.2031 103.938 37.8281 103.938C32.3594 103.938 27.6094 103.094 23.5781 101.406C19.5781 99.7188 16.25 97.3125 13.5938 94.1875C10.9688 91.0625 9 87.3281 7.6875 82.9844C6.375 78.6406 5.71875 73.8281 5.71875 68.5469C5.71875 61.4844 6.875 55.3281 9.1875 50.0781C11.5312 44.7969 15.0781 40.7031 19.8281 37.7969C24.6094 34.8594 30.6406 33.3906 37.9219 33.3906C45.0469 33.3906 50.9688 34.8438 55.6875 37.75C60.4062 40.6562 63.9375 44.75 66.2812 50.0312C68.6562 55.2812 69.8438 61.4844 69.8438 68.6406ZM17.5312 68.6406C17.5312 73.9219 18.25 78.5 19.6875 82.375C21.125 86.2188 23.3281 89.1875 26.2969 91.2812C29.2969 93.3438 33.1406 94.375 37.8281 94.375C42.5469 94.375 46.3906 93.3438 49.3594 91.2812C52.3281 89.1875 54.5156 86.2188 55.9219 82.375C57.3281 78.5 58.0312 73.9219 58.0312 68.6406C58.0312 60.6094 56.4219 54.3281 53.2031 49.7969C50.0156 45.2344 44.9219 42.9531 37.9219 42.9531C33.2344 42.9531 29.375 43.9844 26.3438 46.0469C23.3438 48.1094 21.125 51.0625 19.6875 54.9062C18.25 58.7188 17.5312 63.2969 17.5312 68.6406ZM110.062 50.125C116.219 50.125 121.156 52.375 124.875 56.875C128.625 61.375 130.5 68.0625 130.5 76.9375C130.5 82.8125 129.625 87.7656 127.875 91.7969C126.156 95.7969 123.734 98.8281 120.609 100.891C117.516 102.922 113.906 103.938 109.781 103.938C107.156 103.938 104.875 103.594 102.938 102.906C101 102.219 99.3438 101.328 97.9688 100.234C96.5938 99.1094 95.4375 97.8906 94.5 96.5781H93.8438C94 97.8281 94.1406 99.2188 94.2656 100.75C94.4219 102.25 94.5 103.625 94.5 104.875V126.016H83.4375V51.1094H92.4375L93.9844 58.2812H94.5C95.4688 56.8125 96.6406 55.4531 98.0156 54.2031C99.4219 52.9531 101.109 51.9688 103.078 51.25C105.078 50.5 107.406 50.125 110.062 50.125ZM107.109 59.125C104.078 59.125 101.641 59.7344 99.7969 60.9531C97.9844 62.1406 96.6562 63.9375 95.8125 66.3438C95 68.75 94.5625 71.7656 94.5 75.3906V76.9375C94.5 80.7812 94.8906 84.0469 95.6719 86.7344C96.4844 89.3906 97.8125 91.4219 99.6562 92.8281C101.531 94.2031 104.062 94.8906 107.25 94.8906C109.938 94.8906 112.156 94.1562 113.906 92.6875C115.688 91.2188 117.016 89.125 117.891 86.4062C118.766 83.6875 119.203 80.4844 119.203 76.7969C119.203 71.2031 118.203 66.8594 116.203 63.7656C114.234 60.6719 111.203 59.125 107.109 59.125ZM163.922 50.125C168.547 50.125 172.516 51.0781 175.828 52.9844C179.141 54.8906 181.688 57.5938 183.469 61.0938C185.25 64.5938 186.141 68.7812 186.141 73.6562V79.5625H151.5C151.625 84.5938 152.969 88.4688 155.531 91.1875C158.125 93.9062 161.75 95.2656 166.406 95.2656C169.719 95.2656 172.688 94.9531 175.312 94.3281C177.969 93.6719 180.703 92.7188 183.516 91.4688V100.422C180.922 101.641 178.281 102.531 175.594 103.094C172.906 103.656 169.688 103.938 165.938 103.938C160.844 103.938 156.359 102.953 152.484 100.984C148.641 98.9844 145.625 96.0156 143.438 92.0781C141.281 88.1406 140.203 83.25 140.203 77.4062C140.203 71.5938 141.188 66.6562 143.156 62.5938C145.125 58.5312 147.891 55.4375 151.453 53.3125C155.016 51.1875 159.172 50.125 163.922 50.125ZM163.922 58.4219C160.453 58.4219 157.641 59.5469 155.484 61.7969C153.359 64.0469 152.109 67.3438 151.734 71.6875H175.359C175.328 69.0938 174.891 66.7969 174.047 64.7969C173.234 62.7969 171.984 61.2344 170.297 60.1094C168.641 58.9844 166.516 58.4219 163.922 58.4219ZM209.625 51.1094V71.9688H233.906V51.1094H244.969V103H233.906V80.5938H209.625V103H198.562V51.1094H209.625ZM261.844 103V34.4688H303.656V43.9844H273.094V62.1719H281.297C287.797 62.1719 293.016 63.0312 296.953 64.75C300.891 66.4375 303.734 68.7969 305.484 71.8281C307.234 74.8594 308.109 78.3438 308.109 82.2812C308.109 88.8125 306.031 93.9062 301.875 97.5625C297.75 101.188 291.047 103 281.766 103H261.844ZM273.094 93.625H281.062C286.344 93.625 290.266 92.7344 292.828 90.9531C295.391 89.1406 296.672 86.25 296.672 82.2812C296.672 79.5 296.047 77.3438 294.797 75.8125C293.547 74.25 291.672 73.1562 289.172 72.5312C286.703 71.9062 283.578 71.5938 279.797 71.5938H273.094V93.625ZM341.062 50.125C347.625 50.125 352.578 51.5781 355.922 54.4844C359.297 57.3906 360.984 61.9219 360.984 68.0781V103H353.156L351.047 95.6406H350.672C349.203 97.5156 347.688 99.0625 346.125 100.281C344.562 101.5 342.75 102.406 340.688 103C338.656 103.625 336.172 103.938 333.234 103.938C330.141 103.938 327.375 103.375 324.938 102.25C322.5 101.094 320.578 99.3438 319.172 97C317.766 94.6562 317.062 91.6875 317.062 88.0938C317.062 82.75 319.047 78.7344 323.016 76.0469C327.016 73.3594 333.047 71.875 341.109 71.5938L350.109 71.2656V68.5469C350.109 64.9531 349.266 62.3906 347.578 60.8594C345.922 59.3281 343.578 58.5625 340.547 58.5625C337.953 58.5625 335.438 58.9375 333 59.6875C330.562 60.4375 328.188 61.3594 325.875 62.4531L322.312 54.6719C324.844 53.3281 327.719 52.2344 330.938 51.3906C334.188 50.5469 337.562 50.125 341.062 50.125ZM350.062 78.2031L343.359 78.4375C337.859 78.625 334 79.5625 331.781 81.25C329.562 82.9375 328.453 85.25 328.453 88.1875C328.453 90.75 329.219 92.625 330.75 93.8125C332.281 94.9688 334.297 95.5469 336.797 95.5469C340.609 95.5469 343.766 94.4688 346.266 92.3125C348.797 90.125 350.062 86.9219 350.062 82.7031V78.2031ZM418.781 51.1094V94.4688H426.281V121.281H416.109V103H380.297V121.281H370.125V94.4688H374.344C376.969 90.6562 379.156 86.4062 380.906 81.7188C382.688 77.0312 384.062 72.0938 385.031 66.9062C386.031 61.6875 386.656 56.4219 386.906 51.1094H418.781ZM407.859 59.5469H396.375C396 63.7656 395.359 67.9688 394.453 72.1562C393.547 76.3125 392.375 80.2969 390.938 84.1094C389.531 87.8906 387.844 91.3438 385.875 94.4688H407.859V59.5469Z" fill="url(#paint0_linear_53_467)"/>
<path d="M510.309 58.1267C501.764 70.2839 501.765 86.7272 510.383 98.8774L465.409 98.9821C454.156 99.0083 445.018 89.9071 445 78.6541C444.982 67.4011 454.089 58.2575 465.342 58.2313L510.309 58.1267Z" stroke="#7ECA9C" stroke-width="8"/>
<mask id="path-3-inside-1_53_467" fill="white">
<path fill-rule="evenodd" clip-rule="evenodd" d="M589.194 78.3753C589.172 64.9132 578.241 54.0254 564.779 54.0567L529.669 54.1384C514.37 64.9961 512.88 87.1535 526.589 99.9417L529.749 102.889L564.859 102.807C578.321 102.776 589.217 91.8375 589.194 78.3753ZM532 61.5C532 60.1193 533.119 59 534.5 59H557.5C558.881 59 560 60.1193 560 61.5C560 62.8807 558.881 64 557.5 64H534.5C533.119 64 532 62.8807 532 61.5ZM565.5 59C564.119 59 563 60.1193 563 61.5C563 62.8807 564.119 64 565.5 64H567.5C568.881 64 570 62.8807 570 61.5C570 60.1193 568.881 59 567.5 59H565.5Z"/>
</mask>
<path fill-rule="evenodd" clip-rule="evenodd" d="M589.194 78.3753C589.172 64.9132 578.241 54.0254 564.779 54.0567L529.669 54.1384C514.37 64.9961 512.88 87.1535 526.589 99.9417L529.749 102.889L564.859 102.807C578.321 102.776 589.217 91.8375 589.194 78.3753ZM532 61.5C532 60.1193 533.119 59 534.5 59H557.5C558.881 59 560 60.1193 560 61.5C560 62.8807 558.881 64 557.5 64H534.5C533.119 64 532 62.8807 532 61.5ZM565.5 59C564.119 59 563 60.1193 563 61.5C563 62.8807 564.119 64 565.5 64H567.5C568.881 64 570 62.8807 570 61.5C570 60.1193 568.881 59 567.5 59H565.5Z" fill="#7ECA9C"/>
<path d="M564.779 54.0567L564.768 49.0567L564.779 54.0567ZM589.194 78.3753L594.194 78.3671L589.194 78.3753ZM529.669 54.1384L529.657 49.1384L528.069 49.1421L526.775 50.061L529.669 54.1384ZM526.589 99.9417L530 96.2855L530 96.2855L526.589 99.9417ZM529.749 102.889L526.338 106.545L527.783 107.894L529.76 107.889L529.749 102.889ZM564.859 102.807L564.871 107.807L564.871 107.807L564.859 102.807ZM564.791 59.0567C575.49 59.0318 584.177 67.6842 584.194 78.3835L594.194 78.3671C594.168 62.1422 580.992 49.019 564.768 49.0567L564.791 59.0567ZM529.68 59.1384L564.791 59.0567L564.768 49.0567L529.657 49.1384L529.68 59.1384ZM530 96.2855C518.609 85.6602 519.843 67.2434 532.562 58.2159L526.775 50.061C508.897 62.7488 507.151 88.6467 523.178 103.598L530 96.2855ZM533.159 99.233L530 96.2855L523.178 103.598L526.338 106.545L533.159 99.233ZM564.847 97.8074L529.737 97.8891L529.76 107.889L564.871 107.807L564.847 97.8074ZM584.194 78.3835C584.212 89.0856 575.55 97.7825 564.847 97.8074L564.871 107.807C581.093 107.77 594.221 94.5893 594.194 78.3671L584.194 78.3835ZM534.5 54C530.358 54 527 57.3579 527 61.5H537C537 62.8807 535.881 64 534.5 64V54ZM557.5 54H534.5V64H557.5V54ZM565 61.5C565 57.3579 561.642 54 557.5 54V64C556.119 64 555 62.8807 555 61.5H565ZM557.5 69C561.642 69 565 65.6421 565 61.5H555C555 60.1193 556.119 59 557.5 59V69ZM534.5 69H557.5V59H534.5V69ZM527 61.5C527 65.6421 530.358 69 534.5 69V59C535.881 59 537 60.1193 537 61.5H527ZM568 61.5C568 62.8807 566.881 64 565.5 64V54C561.358 54 558 57.3578 558 61.5H568ZM565.5 59C566.881 59 568 60.1193 568 61.5H558C558 65.6421 561.358 69 565.5 69V59ZM567.5 59H565.5V69H567.5V59ZM565 61.5C565 60.1193 566.119 59 567.5 59V69C571.642 69 575 65.6421 575 61.5H565ZM567.5 64C566.119 64 565 62.8807 565 61.5H575C575 57.3578 571.642 54 567.5 54V64ZM565.5 64H567.5V54H565.5V64Z" fill="#7ECA9C" mask="url(#path-3-inside-1_53_467)"/>
<defs>
<linearGradient id="paint0_linear_53_467" x1="-50.6458" y1="65.5" x2="423.042" y2="71.4621" gradientUnits="userSpaceOnUse">
<stop stop-color="#F5F7F7"/>
<stop offset="1" stop-color="#7ECA9C"/>
</linearGradient>
</defs>
</svg>
