<svg width="22" height="22" viewBox="0 0 22 22" fill="none" xmlns="http://www.w3.org/2000/svg">
<g clip-path="url(#clip0_463_645)">
<path d="M19.2499 3.66667H16.4083C16.1955 2.63213 15.6326 1.70257 14.8144 1.03466C13.9962 0.366749 12.9728 0.00133331 11.9166 0L10.0833 0C9.02706 0.00133331 8.00363 0.366749 7.18544 1.03466C6.36725 1.70257 5.80434 2.63213 5.59159 3.66667H2.74992C2.5068 3.66667 2.27365 3.76324 2.10174 3.93515C1.92983 4.10706 1.83325 4.34022 1.83325 4.58333C1.83325 4.82645 1.92983 5.05961 2.10174 5.23151C2.27365 5.40342 2.5068 5.5 2.74992 5.5H3.66659V17.4167C3.66804 18.6318 4.15139 19.7967 5.01062 20.656C5.86985 21.5152 7.03479 21.9985 8.24992 22H13.7499C14.965 21.9985 16.13 21.5152 16.9892 20.656C17.8484 19.7967 18.3318 18.6318 18.3333 17.4167V5.5H19.2499C19.493 5.5 19.7262 5.40342 19.8981 5.23151C20.07 5.05961 20.1666 4.82645 20.1666 4.58333C20.1666 4.34022 20.07 4.10706 19.8981 3.93515C19.7262 3.76324 19.493 3.66667 19.2499 3.66667V3.66667ZM10.0833 1.83333H11.9166C12.4852 1.83403 13.0396 2.01059 13.5039 2.33882C13.9682 2.66705 14.3196 3.13087 14.5098 3.66667H7.49C7.68029 3.13087 8.03166 2.66705 8.49594 2.33882C8.96022 2.01059 9.51467 1.83403 10.0833 1.83333V1.83333ZM16.4999 17.4167C16.4999 18.146 16.2102 18.8455 15.6945 19.3612C15.1787 19.8769 14.4793 20.1667 13.7499 20.1667H8.24992C7.52057 20.1667 6.8211 19.8769 6.30538 19.3612C5.78965 18.8455 5.49992 18.146 5.49992 17.4167V5.5H16.4999V17.4167Z" fill="#40394A"/>
<path d="M9.16667 16.4993C9.40978 16.4993 9.64294 16.4028 9.81484 16.2309C9.98675 16.0589 10.0833 15.8258 10.0833 15.5827V10.0827C10.0833 9.83957 9.98675 9.60641 9.81484 9.4345C9.64294 9.26259 9.40978 9.16602 9.16667 9.16602C8.92355 9.16602 8.69039 9.26259 8.51849 9.4345C8.34658 9.60641 8.25 9.83957 8.25 10.0827V15.5827C8.25 15.8258 8.34658 16.0589 8.51849 16.2309C8.69039 16.4028 8.92355 16.4993 9.16667 16.4993Z" fill="#40394A"/>
<path d="M12.8332 16.4993C13.0763 16.4993 13.3095 16.4028 13.4814 16.2309C13.6533 16.0589 13.7498 15.8258 13.7498 15.5827V10.0827C13.7498 9.83957 13.6533 9.60641 13.4814 9.4345C13.3095 9.26259 13.0763 9.16602 12.8332 9.16602C12.5901 9.16602 12.3569 9.26259 12.185 9.4345C12.0131 9.60641 11.9165 9.83957 11.9165 10.0827V15.5827C11.9165 15.8258 12.0131 16.0589 12.185 16.2309C12.3569 16.4028 12.5901 16.4993 12.8332 16.4993Z" fill="#40394A"/>
</g>
<defs>
<clipPath id="clip0_463_645">
<rect width="22" height="22" fill="white"/>
</clipPath>
</defs>
</svg>
